<svg width="0" height="0" class="hidden">
  <symbol xmlns="http://www.w3.org/2000/svg" viewBox="0 0 120 101" id="sell">
    <path fill-rule="evenodd" d="M109.953 75.231H75.969l3.412 10.239c3.228.838 5.62 3.774 5.62 7.261v2.5h7.5a2.501 2.501 0 010 5.001H27.5a2.5 2.5 0 110-5.001H35v-2.5c0-3.487 2.39-6.423 5.619-7.261l3.412-10.239H10.047C4.507 75.231 0 70.724 0 65.185V10.278C0 4.739 4.507.233 10.047.233h99.906C115.493.233 120 4.739 120 10.278v54.907c0 5.539-4.507 10.046-10.047 10.046zm-67.453 15a2.502 2.502 0 00-2.5 2.5v2.5h40.001v-2.5c0-1.379-1.122-2.5-2.501-2.5h-35zm31.531-5l-3.333-10H49.302l-3.333 10h28.062zM115 15.232H20.431a2.5 2.5 0 010-5.001h94.566a5.051 5.051 0 00-5.044-4.999H10.047A5.052 5.052 0 005 10.278v47.454h94.969a2.499 2.499 0 110 5H5v2.453a5.053 5.053 0 005.047 5.047h99.906A5.053 5.053 0 00115 65.185V15.232zm-6.755 47.5h-1.057a2.5 2.5 0 110-5h1.057a2.499 2.499 0 110 5zM74.588 26.034l-3.326-.016-.479 3.785-1.6 12.624a2.489 2.489 0 01-2.637 2.171v.006l-19.063-1.269a2.494 2.494 0 01-2.292-2.06h-.003l-2.246-12.597a2.498 2.498 0 012.461-2.929v-.001h12.91a2.5 2.5 0 110 4.999h-9.927l1.38 7.739 14.771.983 1.305-10.291.757-5.972a2.488 2.488 0 012.48-2.178l5.529.027a2.49 2.49 0 01-.02 4.979zm-23.17 20.902a2.506 2.506 0 012.5 2.501 2.505 2.505 0 01-2.5 2.499 2.505 2.505 0 01-2.5-2.499 2.506 2.506 0 012.5-2.501zm12.744 0c1.377 0 2.5 1.124 2.5 2.501a2.505 2.505 0 01-2.5 2.499 2.504 2.504 0 01-2.499-2.499 2.505 2.505 0 012.499-2.501zM12.765 15.233h-1.123a2.501 2.501 0 010-5.001h1.123a2.5 2.5 0 110 5.001z"></path>
  </symbol>

	  <symbol xmlns="http://www.w3.org/2000/svg" viewBox="0 0 20 21" id="33">
    <path fill-rule="evenodd" d="M13.792 14.924c-.19.187-.354.392-.496.609l-6.283-3.734c.166-.408.26-.85.26-1.314 0-.465-.094-.908-.26-1.315l6.285-3.705a3.651 3.651 0 003.066 1.654c2.005 0 3.636-1.597 3.636-3.56s-1.631-3.56-3.636-3.56-3.637 1.597-3.637 3.56c0 .447.089.874.243 1.268l-6.293 3.71a3.655 3.655 0 00-3.041-1.612C1.631 6.925 0 8.522 0 10.485c0 1.962 1.631 3.559 3.636 3.559 1.271 0 2.39-.642 3.04-1.612l6.292 3.739a3.493 3.493 0 00.824 3.787A3.666 3.666 0 0016.363 21c.932 0 1.863-.348 2.571-1.042a3.5 3.5 0 000-5.034c-1.417-1.388-3.724-1.388-5.142 0zM16.364.711c1.604 0 2.909 1.278 2.909 2.848 0 1.57-1.305 2.847-2.909 2.847-1.604 0-2.909-1.277-2.909-2.847S14.759.711 16.364.711zM3.637 13.332c-1.604 0-2.909-1.277-2.909-2.847 0-1.571 1.305-2.848 2.909-2.848 1.604 0 2.909 1.277 2.909 2.848 0 1.57-1.305 2.847-2.909 2.847zm14.783 6.123a2.956 2.956 0 01-4.113 0 2.799 2.799 0 01-.852-2.013c0-.761.302-1.477.852-2.014a2.933 2.933 0 012.057-.833c.745 0 1.489.278 2.057.833a2.8 2.8 0 01.852 2.014 2.8 2.8 0 01-.853 2.013z"></path>
  </symbol>

	 <symbol xmlns="http://www.w3.org/2000/svg" viewBox="0 0 13 10" id="0">
    <path fill-rule="evenodd" d="M.15 5.502a.536.536 0 01-.15-.35c0-.1.05-.249.15-.349l.699-.7c.2-.2.5-.2.7 0l.05.05 2.748 2.948c.1.1.25.1.35 0L11.393.156h.05c.2-.199.5-.199.7 0l.7.7c.199.2.199.499 0 .699L4.847 9.849c-.1.1-.2.15-.35.15a.45.45 0 01-.349-.15L.25 5.652l-.1-.15z"></path>
  </symbol>
	

</svg>